<svg viewBox="0 0 48 48" fill="#3e3e3e" xmlns="http://www.w3.org/2000/svg"><path d="M22.821 14.375l.102 1.686-1.698-.206c-6.18-.792-11.58-3.477-16.165-7.987L2.82 5.63l-.58 1.653c-1.222 3.683-.441 7.574 2.106 10.19 1.358 1.446 1.053 1.652-1.29.792-.816-.276-1.529-.482-1.597-.379-.237.241.578 3.374 1.223 4.613.883 1.721 2.683 3.408 4.652 4.407L9 27.697l-1.97.035c-1.901 0-1.969.034-1.765.757.679 2.238 3.362 4.613 6.35 5.646l2.106.723-1.834 1.102c-2.717 1.583-5.909 2.478-9.101 2.547-1.528.035-2.785.172-2.785.275 0 .345 4.143 2.273 6.554 3.03 7.234 2.238 15.826 1.274 22.278-2.548 4.585-2.72 9.17-8.124 11.309-13.357 1.154-2.788 2.31-7.883 2.31-10.328 0-1.583.101-1.79 2.003-3.683 1.12-1.102 2.173-2.307 2.377-2.65.34-.655.306-.655-1.426-.07-2.887 1.033-3.294.895-1.868-.654 1.053-1.101 2.31-3.098 2.31-3.683 0-.104-.51.069-1.088.378-.61.345-1.97.861-2.988 1.17l-1.834.586-1.664-1.136c-.917-.62-2.207-1.308-2.887-1.515-1.732-.482-4.38-.413-5.943.138-4.245 1.55-6.928 5.542-6.622 9.915z"></path></svg>